<svg data-v-0dd9719b="" version="1.0" xmlns="http://www.w3.org/2000/svg"
  xmlns:xlink="http://www.w3.org/1999/xlink" width="100%" height="100%"
  viewBox="0 0 340.000000 250.000000" preserveAspectRatio="xMidYMid meet"
  color-interpolation-filters="sRGB" style="margin: auto;">
  <rect data-v-0dd9719b="" x="0" y="0" width="100%" height="100%" fill="#ffffff" fill-opacity="1"
    class="background"></rect>
  <g data-v-0dd9719b="" class="iconmbgsvg" transform="translate(101.25,56.25)">
    <g fill="#000000" hollow-target="textFill" mask="url(#13a4b4c9-d34d-4d04-9fd4-32027745538f)">
      <g>
        <g>
          <rect fill="#000000" fill-opacity="0" stroke-width="2" x="0" y="0" width="137.5"
            height="137.5" class="image-rect"></rect>
          <svg filter="url(#colors3331760456)" x="0" y="0" width="137.5" height="137.5"
            filtersec="colorsf5401433665" class="image-svg-svg primary" style="overflow: visible;">
            <svg xmlns="http://www.w3.org/2000/svg" xmlns:xlink="http://www.w3.org/1999/xlink"
              version="1.1" x="0px" y="0px" viewBox="2.5 2.5 95 95"
              enable-background="new 0 0 100 100" xml:space="preserve"><g><path d="M50,6.5C26.014,6.5,6.5,26.014,6.5,50c0,23.986,19.514,43.5,43.5,43.5c23.986,0,43.5-19.514,43.5-43.5   C93.5,26.014,73.986,6.5,50,6.5z"></path><path d="M50,2.5C23.767,2.5,2.5,23.767,2.5,50S23.767,97.5,50,97.5S97.5,76.233,97.5,50S76.233,2.5,50,2.5z M50,95.5   C24.911,95.5,4.5,75.089,4.5,50S24.911,4.5,50,4.5S95.5,24.911,95.5,50S75.089,95.5,50,95.5z"></path></g></svg>
          </svg>
          <defs>
            <filter id="colors3331760456">
              <feColorMatrix type="matrix" values="0 0 0 0 0  0 0 0 0 0  0 0 0 0 0  0 0 0 1 0"
                class="icon-fecolormatrix"></feColorMatrix>
            </filter>
            <filter id="colorsf5401433665">
              <feColorMatrix type="matrix"
                values="0 0 0 0 0.99609375  0 0 0 0 0.99609375  0 0 0 0 0.99609375  0 0 0 1 0"
                class="icon-fecolormatrix"></feColorMatrix>
            </filter>
            <filter id="colorsb4437121965">
              <feColorMatrix type="matrix" values="0 0 0 0 0  0 0 0 0 0  0 0 0 0 0  0 0 0 1 0"
                class="icon-fecolormatrix"></feColorMatrix>
            </filter>
          </defs>
        </g>
      </g>
      <g transform="translate(25.545001983642578,46.9950008392334)">
        <g data-gra="path-name" fill-rule="" class="tp-name">
          <g transform="scale(1)">
            <g>
              <path
                d="M36.95-21.26Q39.79-22.8 41.46-25.53L41.46-25.53Q43.2-28.37 43.2-31.68L43.2-31.68Q43.2-36.57 39.72-40.06L39.72-40.06Q36.26-43.51 31.38-43.51L31.38-43.51 4.65-43.51Q3.86-43.51 3.28-42.96L3.28-42.96Q2.73-42.38 2.73-41.6L2.73-41.6Q2.73-40.81 3.28-40.26L3.28-40.26Q3.86-39.72 4.65-39.72L4.65-39.72 31.38-39.72Q34.69-39.72 37.02-37.36L37.02-37.36Q39.38-35 39.38-31.68L39.38-31.68Q39.38-28.37 37.02-26.01L37.02-26.01Q34.69-23.65 31.38-23.65L31.38-23.65 4.65-23.65Q3.86-23.65 3.28-23.11L3.28-23.11Q2.73-22.56 2.73-21.77L2.73-21.77Q2.73-20.95 3.28-20.41L3.28-20.41Q3.86-19.86 4.65-19.86L4.65-19.86 29.09-19.86Q33.33-19.86 36.37-16.82L36.37-16.82Q39.38-13.81 39.38-9.54L39.38-9.54 39.38-1.91Q39.38-1.13 39.96-0.55L39.96-0.55Q40.5 0 41.29 0L41.29 0Q42.08 0 42.62-0.55L42.62-0.55Q43.2-1.13 43.2-1.91L43.2-1.91 43.2-9.54Q43.2-17.06 36.95-21.26L36.95-21.26ZM52.12 0Q51.3 0 50.76-0.55L50.76-0.55Q50.21-1.13 50.21-1.91L50.21-1.91 50.21-21.77Q50.21-22.56 50.76-23.11L50.76-23.11Q51.3-23.65 52.12-23.65L52.12-23.65 77.31-23.65Q80.63-23.65 82.95-26.01L82.95-26.01Q85.31-28.37 85.31-31.68L85.31-31.68Q85.31-35 82.95-37.36L82.95-37.36Q80.63-39.72 77.31-39.72L77.31-39.72 50.59-39.72Q49.8-39.72 49.22-40.26L49.22-40.26Q48.67-40.81 48.67-41.6L48.67-41.6Q48.67-42.38 49.22-42.96L49.22-42.96Q49.8-43.51 50.59-43.51L50.59-43.51 77.31-43.51Q82.2-43.51 85.65-40.06L85.65-40.06Q89.14-36.57 89.14-31.68L89.14-31.68Q89.14-26.8 85.65-23.31L85.65-23.31Q82.2-19.86 77.31-19.86L77.31-19.86 54-19.86 54-1.91Q54-1.13 53.46-0.55L53.46-0.55Q52.91 0 52.12 0L52.12 0Z"
                transform="translate(-2.7300000190734863, 43.5099983215332)"></path>
            </g> <!----> <!----> <!----> <!----> <!----> <!----> <!---->
          </g>
        </g> <!---->
      </g>
    </g>
  </g>
  <mask id="13a4b4c9-d34d-4d04-9fd4-32027745538f">
    <g fill="white">
      <g>
        <rect fill-opacity="0" stroke-width="2" x="0" y="0" width="137.5" height="137.5"
          class="image-rect"></rect>
        <svg x="0" y="0" width="137.5" height="137.5" class="image-svg-svg primary"
          style="overflow: visible;" filter="url(#colorsf5401433665)">
          <svg xmlns="http://www.w3.org/2000/svg" xmlns:xlink="http://www.w3.org/1999/xlink"
            version="1.1" x="0px" y="0px" viewBox="2.5 2.5 95 95"
            enable-background="new 0 0 100 100" xml:space="preserve"><g><path d="M50,6.5C26.014,6.5,6.5,26.014,6.5,50c0,23.986,19.514,43.5,43.5,43.5c23.986,0,43.5-19.514,43.5-43.5   C93.5,26.014,73.986,6.5,50,6.5z"></path><path d="M50,2.5C23.767,2.5,2.5,23.767,2.5,50S23.767,97.5,50,97.5S97.5,76.233,97.5,50S76.233,2.5,50,2.5z M50,95.5   C24.911,95.5,4.5,75.089,4.5,50S24.911,4.5,50,4.5S95.5,24.911,95.5,50S75.089,95.5,50,95.5z"></path></g></svg>
        </svg>
        <defs> </defs>
      </g>
    </g>
    <g transform="translate(25.545001983642578,46.9950008392334)" fill="black">
      <g data-gra="path-name" fill-rule="" class="tp-name">
        <g transform="scale(1)">
          <g>
            <path
              d="M36.95-21.26Q39.79-22.8 41.46-25.53L41.46-25.53Q43.2-28.37 43.2-31.68L43.2-31.68Q43.2-36.57 39.72-40.06L39.72-40.06Q36.26-43.51 31.38-43.51L31.38-43.51 4.65-43.51Q3.86-43.51 3.28-42.96L3.28-42.96Q2.73-42.38 2.73-41.6L2.73-41.6Q2.73-40.81 3.28-40.26L3.28-40.26Q3.86-39.72 4.65-39.72L4.65-39.72 31.38-39.72Q34.69-39.72 37.02-37.36L37.02-37.36Q39.38-35 39.38-31.68L39.38-31.68Q39.38-28.37 37.02-26.01L37.02-26.01Q34.69-23.65 31.38-23.65L31.38-23.65 4.65-23.65Q3.86-23.65 3.28-23.11L3.28-23.11Q2.73-22.56 2.73-21.77L2.73-21.77Q2.73-20.95 3.28-20.41L3.28-20.41Q3.86-19.86 4.65-19.86L4.65-19.86 29.09-19.86Q33.33-19.86 36.37-16.82L36.37-16.82Q39.38-13.81 39.38-9.54L39.38-9.54 39.38-1.91Q39.38-1.13 39.96-0.55L39.96-0.55Q40.5 0 41.29 0L41.29 0Q42.08 0 42.62-0.55L42.62-0.55Q43.2-1.13 43.2-1.91L43.2-1.91 43.2-9.54Q43.2-17.06 36.95-21.26L36.95-21.26ZM52.12 0Q51.3 0 50.76-0.55L50.76-0.55Q50.21-1.13 50.21-1.91L50.21-1.91 50.21-21.77Q50.21-22.56 50.76-23.11L50.76-23.11Q51.3-23.65 52.12-23.65L52.12-23.65 77.31-23.65Q80.63-23.65 82.95-26.01L82.95-26.01Q85.31-28.37 85.31-31.68L85.31-31.68Q85.31-35 82.95-37.36L82.95-37.36Q80.63-39.72 77.31-39.72L77.31-39.72 50.59-39.72Q49.8-39.72 49.22-40.26L49.22-40.26Q48.67-40.81 48.67-41.6L48.67-41.6Q48.67-42.38 49.22-42.96L49.22-42.96Q49.8-43.51 50.59-43.51L50.59-43.51 77.31-43.51Q82.2-43.51 85.65-40.06L85.65-40.06Q89.14-36.57 89.14-31.68L89.14-31.68Q89.14-26.8 85.65-23.31L85.65-23.31Q82.2-19.86 77.31-19.86L77.31-19.86 54-19.86 54-1.91Q54-1.13 53.46-0.55L53.46-0.55Q52.91 0 52.12 0L52.12 0Z"
              transform="translate(-2.7300000190734863, 43.5099983215332)"></path>
          </g>
        </g>
      </g>
    </g>
  </mask>
  <defs v-gra="od"></defs>
</svg>